<?xml version="1.0" standalone="no"?>
<!DOCTYPE svg PUBLIC "-//W3C//DTD SVG 20010904//EN"
 "http://www.w3.org/TR/2001/REC-SVG-20010904/DTD/svg10.dtd">
<svg version="1.0" xmlns="http://www.w3.org/2000/svg"
 width="50.000000pt" height="50.000000pt" viewBox="0 0 50.000000 50.000000"
 preserveAspectRatio="xMidYMid meet">

<g transform="translate(0.000000,50.000000) scale(0.100000,-0.100000)"
fill="#000000" stroke="none">
<path d="M52 492 c-38 -6 -37 -29 3 -89 35 -52 37 -61 36 -124 -1 -38 -6 -80
-11 -93 -7 -19 -4 -30 12 -51 l20 -26 -21 -23 c-11 -12 -21 -26 -21 -32 1 -16
46 -43 59 -34 7 4 21 5 31 3 12 -3 19 3 23 19 10 36 8 96 -3 103 -5 3 -10 17
-10 31 0 23 2 24 38 17 47 -9 81 -9 108 0 28 10 37 -11 21 -52 -8 -23 -9 -36
-1 -49 6 -10 8 -26 3 -37 -17 -44 -11 -54 29 -50 20 1 39 4 42 5 3 1 14 3 24
4 29 2 30 21 1 51 -29 32 -29 32 -10 65 22 38 18 92 -8 131 -13 19 -28 53 -34
76 -10 38 -8 46 13 75 26 35 31 68 12 69 -7 0 -26 2 -43 3 -16 1 -43 -1 -60
-4 -17 -4 -44 0 -63 7 -42 18 -68 9 -87 -28 -21 -39 -35 -37 -35 5 0 35 -7 38
-68 28z m265 -118 c-3 -3 -12 -4 -19 -1 -8 3 -5 6 6 6 11 1 17 -2 13 -5z
m-117 -14 c0 -5 -7 -10 -15 -10 -8 0 -15 5 -15 10 0 6 7 10 15 10 8 0 15 -4
15 -10z"/>
</g>
</svg>
